<svg width="34" height="34" viewBox="0 0 34 34" fill="none" xmlns="http://www.w3.org/2000/svg">
<rect width="34" height="34" rx="4" fill="#202227"/>
<path d="M22.291 13.0507C21.3518 12.9573 20.4126 12.8873 19.4676 12.8348V12.829L19.3393 12.0707C19.2518 11.534 19.1235 10.729 17.7585 10.729H16.2301C14.871 10.729 14.7426 11.499 14.6493 12.0648L14.5268 12.8115C13.9843 12.8465 13.4418 12.8815 12.8993 12.934L11.7093 13.0507C11.4643 13.074 11.2893 13.2898 11.3126 13.529C11.336 13.7682 11.546 13.9432 11.791 13.9198L12.981 13.8032C16.0376 13.4998 19.1176 13.6165 22.2093 13.9257C22.2268 13.9257 22.2385 13.9257 22.256 13.9257C22.4776 13.9257 22.6701 13.7565 22.6935 13.529C22.711 13.2898 22.536 13.074 22.291 13.0507Z" fill="white"/>
<path d="M21.2175 14.7485C21.0775 14.6027 20.885 14.521 20.6867 14.521H13.3133C13.115 14.521 12.9167 14.6027 12.7825 14.7485C12.6484 14.8943 12.5725 15.0927 12.5842 15.2968L12.9459 21.2818C13.01 22.1685 13.0917 23.2768 15.1275 23.2768H18.8725C20.9083 23.2768 20.99 22.1743 21.0542 21.2818L21.4158 15.3027C21.4275 15.0927 21.3517 14.8943 21.2175 14.7485ZM17.9683 20.3543H16.0258C15.7867 20.3543 15.5883 20.156 15.5883 19.9168C15.5883 19.6777 15.7867 19.4793 16.0258 19.4793H17.9683C18.2075 19.4793 18.4058 19.6777 18.4058 19.9168C18.4058 20.156 18.2075 20.3543 17.9683 20.3543ZM18.4583 18.021H15.5417C15.3025 18.021 15.1042 17.8227 15.1042 17.5835C15.1042 17.3443 15.3025 17.146 15.5417 17.146H18.4583C18.6975 17.146 18.8958 17.3443 18.8958 17.5835C18.8958 17.8227 18.6975 18.021 18.4583 18.021Z" fill="white"/>
</svg>
