<svg width="20" height="20" viewBox="0 0 20 20" fill="none" xmlns="http://www.w3.org/2000/svg">
<g clip-path="url(#clip0_75_1206)">
<path d="M7.61388 7.61341L4.10777 4.1073M4.10777 15.8924L7.6403 12.3599M12.3845 12.3863L15.8907 15.8924M15.8907 4.1073L12.3576 7.64035M18.3337 9.99984C18.3337 14.6022 14.6027 18.3332 10.0003 18.3332C5.39795 18.3332 1.66699 14.6022 1.66699 9.99984C1.66699 5.39746 5.39795 1.6665 10.0003 1.6665C14.6027 1.6665 18.3337 5.39746 18.3337 9.99984ZM13.3337 9.99984C13.3337 11.8408 11.8413 13.3332 10.0003 13.3332C8.15938 13.3332 6.66699 11.8408 6.66699 9.99984C6.66699 8.15889 8.15938 6.6665 10.0003 6.6665C11.8413 6.6665 13.3337 8.15889 13.3337 9.99984Z" stroke="#8E6147" stroke-width="2" stroke-linecap="round" strokeLinejoin="round"/>
</g>
<defs>
<clipPath id="clip0_75_1206">
<rect width="20" height="20" fill="white"/>
</clipPath>
</defs>
</svg>
